<svg width="16" height="16" viewBox="0 0 16 16" fill="none" xmlns="http://www.w3.org/2000/svg">
<path d="M13.5902 11.7745C12.6499 11.7745 10.9714 11.3602 9.51062 10.8271L10.2663 10.1316C12.4012 10.9111 14.0323 11.0957 14.704 10.6267C14.9781 10.435 15.1112 10.1165 15.1112 9.65234H16C16 10.4168 15.7354 10.9903 15.2134 11.3547C14.8133 11.6343 14.2707 11.7745 13.5902 11.7745Z" fill="#8BC333"/>
<path d="M15.1247 7.88871C13.1268 6.65452 8.34063 8.98268 7.80117 9.2528C7.78136 9.26231 6.54005 9.8794 5.09912 10.3499C3.30567 10.9353 1.97168 11.0439 1.34271 10.6549C1.14784 10.5345 0.888801 10.2992 0.888801 9.64967C0.888801 9.21953 1.01396 8.62937 2.09446 8.46777C2.85177 8.35449 3.50054 7.9196 3.87286 7.27399C4.72205 5.80295 6.3032 4.8888 8 4.8888C9.31261 4.8888 10.561 5.42905 11.4594 6.37806C11.5433 6.46678 11.6812 6.47787 11.7738 6.39786L12.105 6.11189C12.2008 6.02951 12.2119 5.88217 12.1256 5.78949C11.0585 4.64957 9.56768 4 8 4C5.98713 4 4.11051 5.08446 3.10367 6.82959C2.86682 7.23914 2.45173 7.51639 1.96297 7.58927C0.715318 7.77622 0 8.52798 0 9.65047C0 10.6589 0.476087 11.1651 0.875334 11.4114C1.28884 11.6673 1.82196 11.7703 2.41212 11.7703C4.67294 11.7703 7.77107 10.262 8.19883 10.0481C10.0644 9.11576 13.4675 7.9093 14.6573 8.64522C14.8522 8.76562 15.1112 9.0009 15.1112 9.65047C15.1112 9.89604 15.31 10.0949 15.5556 10.0949C15.8012 10.0949 16 9.89604 16 9.65047C16 8.64205 15.5239 8.13586 15.1247 7.88871Z" fill="url(#paint0_linear_10593_217109)"/>
<path d="M8.70264 5.53906H8.05308C8.02376 5.53906 8 5.56282 8 5.59214V6.24171C8 6.27102 8.02376 6.29478 8.05308 6.29478H8.70264C8.73196 6.29478 8.75572 6.27102 8.75572 6.24171V5.59214C8.75572 5.56282 8.73196 5.53906 8.70264 5.53906Z" fill="#8BC333"/>
<path d="M10.2141 6.29297H9.56449C9.53518 6.29297 9.51141 6.31673 9.51141 6.34604V6.99561C9.51141 7.02493 9.53518 7.04869 9.56449 7.04869H10.2141C10.2434 7.04869 10.2671 7.02493 10.2671 6.99561V6.34604C10.2671 6.31673 10.2434 6.29297 10.2141 6.29297Z" fill="#8BC333"/>
<path d="M7.19123 7.04688H6.54166C6.51235 7.04688 6.48859 7.07064 6.48859 7.09995V7.74952C6.48859 7.77883 6.51235 7.80259 6.54166 7.80259H7.19123C7.22054 7.80259 7.2443 7.77883 7.2443 7.74952V7.09995C7.2443 7.07064 7.22054 7.04688 7.19123 7.04688Z" fill="#8BC333"/>
<path d="M10.2671 7.80469H9.51141V10.8268H10.2671V7.80469Z" fill="#8BC333"/>
<path d="M8.75572 7.04688H8V10.8247H8.75572V7.04688Z" fill="#8BC333"/>
<path d="M7.2443 8.55859H6.48859V11.5807H7.2443V8.55859Z" fill="#8BC333"/>
<defs>
<linearGradient id="paint0_linear_10593_217109" x1="0" y1="7.88554" x2="16" y2="7.88554" gradientUnits="userSpaceOnUse">
<stop stop-color="#007EBB"/>
<stop offset="0.16" stop-color="#0480B6"/>
<stop offset="0.33" stop-color="#1086AA"/>
<stop offset="0.51" stop-color="#269095"/>
<stop offset="0.68" stop-color="#439F78"/>
<stop offset="0.86" stop-color="#69B253"/>
<stop offset="1" stop-color="#8BC333"/>
</linearGradient>
</defs>
</svg>
