<svg width="81" height="47" viewBox="0 0 81 47" fill="none" xmlns="http://www.w3.org/2000/svg">
<g clip-path="url(#clip0_10526_156789)">
<path d="M5.2168 41.7427C5.06738 41.5376 4.90918 41.3325 4.74219 41.1274C5.36035 40.77 5.81445 40.4551 6.10449 40.1826C6.41797 39.8838 6.64209 39.5381 6.77686 39.1455C6.89697 38.7852 6.97314 38.2783 7.00537 37.625C7.00537 37.5869 7.0083 37.5166 7.01416 37.4141C7.02002 37.2852 7.02295 37.1899 7.02295 37.1284H4.74219V36.4517H12.6743V37.1284H10.0815V40.1299C10.0815 40.3877 10.1255 40.562 10.2134 40.6528C10.2954 40.7407 10.4521 40.7847 10.6836 40.7847H11.1714C11.4292 40.7847 11.6108 40.7393 11.7163 40.6484C11.8247 40.5576 11.9053 40.3848 11.958 40.1299C11.9873 39.9219 12.0298 39.5454 12.0854 39.0005C12.3345 39.0972 12.5586 39.1719 12.7578 39.2246C12.708 39.7432 12.6597 40.1211 12.6128 40.3584C12.5366 40.7627 12.3975 41.0469 12.1953 41.2109C11.9902 41.375 11.6709 41.457 11.2373 41.457H10.499C10.1152 41.457 9.83398 41.3677 9.65527 41.189C9.4707 41.0073 9.37842 40.7158 9.37842 40.3145V37.1284H7.73486L7.7085 37.6426C7.67334 38.3867 7.58398 38.9771 7.44043 39.4136C7.28809 39.8823 7.0376 40.2954 6.68896 40.6528C6.36084 40.9868 5.87012 41.3501 5.2168 41.7427ZM5.52002 34.6323V33.96H11.9009V34.6323H5.52002ZM13.7334 41.3032V40.6353H17.5303V38.4951H14.5859V37.8184H17.5303V35.8804H15.2759C14.9624 36.481 14.6328 37.0068 14.2871 37.458C14.1641 37.3672 13.9678 37.2236 13.6982 37.0273C14.0732 36.5498 14.3984 36.0518 14.6738 35.5332C14.9375 35.0322 15.1748 34.4712 15.3857 33.8501L16.0889 33.9951C15.9219 34.4668 15.7593 34.8711 15.6011 35.208H17.5303V33.4062H18.251V35.208H21.3359V35.8804H18.251V37.8184H21.0854V38.4951H18.251V40.6353H21.7578V41.3032H13.7334ZM23.7881 41.7559V36.7769C23.4775 37.3071 23.145 37.7935 22.7905 38.2358C22.7319 37.9927 22.6616 37.7158 22.5796 37.4053C23.397 36.2803 24.0488 34.9692 24.5352 33.4722L25.2075 33.6831C24.9673 34.3481 24.7153 34.9575 24.4517 35.5112V41.7559H23.7881ZM29.4482 41.6987C28.7598 41.6987 28.1958 41.2432 27.7563 40.332C27.5454 39.8926 27.3784 39.4077 27.2554 38.8774C27.1353 38.3442 27.0386 37.6689 26.9653 36.8516L25.1284 37.0625L25.0361 36.3813L26.9082 36.166C26.8496 35.3105 26.8071 34.4067 26.7808 33.4546H27.4795C27.4971 34.313 27.5322 35.1919 27.585 36.0913L30.5732 35.7441L30.6392 36.4165L27.6377 36.7681C27.6963 37.4976 27.7856 38.1201 27.9058 38.6357C28.0171 39.1191 28.168 39.5615 28.3584 39.9629C28.5195 40.3145 28.688 40.5723 28.8638 40.7363C29.0249 40.8857 29.2007 40.9604 29.3911 40.9604C29.5317 40.9604 29.646 40.9165 29.7339 40.8286C29.8276 40.7319 29.9023 40.5723 29.958 40.3496C30.0049 40.1211 30.0723 39.749 30.1602 39.2334C30.377 39.333 30.5864 39.4092 30.7886 39.4619C30.7153 39.9072 30.6377 40.3013 30.5557 40.644C30.374 41.3472 30.0049 41.6987 29.4482 41.6987ZM29.6152 35.4849C29.2725 35.1421 28.8169 34.7231 28.2485 34.228L28.6924 33.793C29.1904 34.1885 29.6577 34.5884 30.0942 34.9927L29.6152 35.4849ZM32.8716 41.7559V37.9326H38.5977V41.7559H37.9385V41.3735H33.5352V41.7559H32.8716ZM33.5352 40.811H37.9385V39.9058H33.5352V40.811ZM33.5352 39.3916H37.9385V38.4863H33.5352V39.3916ZM32.0762 38.1436C32.0029 38.0322 31.874 37.8477 31.6895 37.5898C32.2139 37.3789 32.6152 37.165 32.8936 36.9482C33.1807 36.7256 33.3887 36.459 33.5176 36.1484H31.7642V35.5947H33.667C33.7051 35.2988 33.7285 34.9912 33.7373 34.6719H32.7793C32.5566 34.959 32.3442 35.208 32.1421 35.4189C32.0044 35.2607 31.8682 35.1187 31.7334 34.9927C32.2402 34.5415 32.6035 33.9966 32.8232 33.3579L33.4253 33.4414C33.3345 33.6641 33.2261 33.8955 33.1001 34.1357H35.6138V34.6719H34.3657C34.3569 35.041 34.3364 35.3486 34.3042 35.5947H35.8555V36.1484H34.1372C34.1343 36.1514 34.1313 36.1543 34.1284 36.1572C34.2397 36.2305 34.4038 36.3374 34.6206 36.478C35.1538 36.8208 35.5493 37.0801 35.8071 37.2559L35.438 37.7744C34.8931 37.3438 34.3906 36.9644 33.9307 36.6362C33.7783 36.9321 33.5513 37.2002 33.2495 37.4404C32.9653 37.6689 32.5742 37.9033 32.0762 38.1436ZM36.2686 37.2471V34.061H39.314V37.2471H36.2686ZM36.8794 36.6758H38.7075V34.6323H36.8794V36.6758ZM41.7397 41.835C41.7104 41.8115 41.6577 41.7676 41.5815 41.7031C41.4263 41.5654 41.3076 41.4688 41.2256 41.4131C41.7031 41.2637 42.0547 41.1143 42.2803 40.9648C42.5146 40.8096 42.6772 40.6133 42.7681 40.376H40.6982V39.8442H42.8691C42.8867 39.6772 42.8955 39.4912 42.8955 39.2861H43.5503C43.5503 39.4912 43.5415 39.6772 43.5239 39.8442H46.1167V39.251H46.7539V39.8442H48.7578V40.376H46.7539V41.6812H46.1167V40.376H43.4492C43.3672 40.7246 43.1958 41.0103 42.9351 41.2329C42.6772 41.4497 42.2788 41.6504 41.7397 41.835ZM41.6562 39.1411V35.6123H47.7822V39.1411H41.6562ZM42.3154 38.6797H47.1362V38.0688H42.3154V38.6797ZM42.3154 37.6646H47.1362V37.0713H42.3154V37.6646ZM42.3154 36.667H47.1362V36.0737H42.3154V36.667ZM41.0322 35.8804C40.9238 35.7427 40.7847 35.5771 40.6147 35.3838C41.3091 34.8301 41.8291 34.1621 42.1748 33.3799L42.812 33.481C42.73 33.6597 42.623 33.8662 42.4912 34.1006H44.7808V34.606H43.2295C43.4141 34.8081 43.6045 35.0337 43.8008 35.2827L43.2734 35.5112C43.2354 35.4614 43.1753 35.3838 43.0933 35.2783C42.8911 35.0176 42.7417 34.8301 42.645 34.7158L42.9438 34.606H42.1748C41.8496 35.063 41.4688 35.4878 41.0322 35.8804ZM45.084 35.5288C44.9521 35.4321 44.7734 35.3193 44.5479 35.1904C44.8291 34.8945 45.0562 34.6104 45.229 34.3379C45.4019 34.0713 45.5601 33.7549 45.7036 33.3887L46.332 33.4722C46.2529 33.6626 46.1606 33.8721 46.0552 34.1006H48.6875V34.606H46.8462C46.8989 34.6733 46.978 34.7686 47.0835 34.8916C47.2241 35.0586 47.3296 35.189 47.3999 35.2827L46.8682 35.5024C46.7129 35.2856 46.5093 35.0205 46.2573 34.707L46.5518 34.606H45.7695C45.5938 34.9048 45.3652 35.2124 45.084 35.5288ZM56.7251 41.5054L56.189 40.7583C54.4048 40.811 52.8389 40.8843 51.4912 40.978C51.1689 40.9956 50.8599 41.0322 50.564 41.0879L50.2168 40.3057C50.3691 40.2119 50.5039 40.1138 50.6211 40.0112C50.7412 39.9087 50.8804 39.7695 51.0386 39.5938C51.3169 39.2803 51.6055 38.9185 51.9043 38.5083C52.2119 38.0894 52.4771 37.688 52.6997 37.3042H49.7246V36.6099H57.7314V37.3042H53.5566L53.6401 37.3218C52.9106 38.3882 52.1533 39.3667 51.3682 40.2573C52.1826 40.2515 53.6299 40.2031 55.71 40.1123C55.1445 39.3594 54.7388 38.8262 54.4927 38.5127L55.064 38.1523C55.978 39.2686 56.7441 40.2441 57.3623 41.0791L56.7251 41.5054ZM50.4717 34.6982V33.9951H56.9668V34.6982H50.4717ZM62.3545 41.7734V38.7456H58.7158V38.0601H62.3545V34.5049H59.1025V33.8413H66.3447V34.5049H63.0664V38.0601H66.7139V38.7456H63.0664V41.7734H62.3545ZM64.3496 37.5327L63.8311 37.0713C64.4053 36.4531 64.9224 35.8071 65.3823 35.1333L65.958 35.5376C65.4717 36.1792 64.9355 36.8442 64.3496 37.5327ZM60.9219 37.5063C60.4707 36.8618 59.9844 36.2056 59.4629 35.5376L59.9727 35.1421C60.4385 35.7017 60.9438 36.3418 61.4888 37.0625L60.9219 37.5063ZM68.7134 41.7559V37.9106H74.6987V41.7559H74.0044V41.189H69.3857V41.7559H68.7134ZM69.3857 40.5518H74.0044V38.5479H69.3857V40.5518ZM75.2041 37.4316L74.5669 36.7505C72.3052 36.8032 70.5049 36.8647 69.166 36.9351C68.7266 36.9644 68.397 37.0039 68.1772 37.0537L67.8564 36.3506C68.1494 36.2129 68.4014 36.0532 68.6123 35.8716C69.0254 35.52 69.4458 35.126 69.8735 34.6895C70.3188 34.2324 70.7114 33.793 71.0513 33.3711L71.7896 33.7183C71.0161 34.5591 70.1299 35.4116 69.1309 36.2759L73.9868 36.1309L72.8135 34.9092L73.3408 34.5225C74.1758 35.3398 74.9917 36.1616 75.7886 36.9878L75.2041 37.4316Z" fill="#9B9B9B"/>
<rect y="37" width="3" height="1" fill="#E0E0E0"/>
<rect x="78" y="37" width="3" height="1" fill="#E0E0E0"/>
<g clip-path="url(#clip1_10526_156789)">
<path d="M59.8976 16.2686C60.5771 16.2686 61.0463 16.4222 61.3071 16.7272C61.6227 17.1353 61.7826 17.6087 61.7826 18.1536C61.7826 18.6185 61.7489 19.0245 61.6816 19.3759H62.5652V20.9032H48.0869V19.3759H49.1388V16.2707H59.8997L59.8976 16.2686ZM48.2195 6.71318H51.4782V6.03366H53.1591V6.71318H57.6739V6H59.3548V6.71318H62.4958V8.19004H59.3548V8.8359H57.6739V8.19004H53.1591V8.86957H51.4782V8.19004H48.2195V6.71318ZM50.7482 19.3759H52.852V17.594H50.7482V19.3759ZM54.3793 19.3759H56.5V17.594H54.3793V19.3759ZM57.5203 11.9769C56.9649 12.8036 56.3611 13.3296 55.7047 13.5547L55.6711 11.6718C56.2138 11.4109 56.6556 10.6136 56.9944 9.2777L58.7426 9.29453C58.5722 9.7805 58.4081 10.216 58.2503 10.601H62.3232V11.9769H57.5203ZM56.4011 13.5842H62.0708V14.9411H56.4011V13.5842ZM53.8534 10.155V14.9748H52.3513V10.155H53.8534ZM51.1037 9.49018V15.6269H49.6016V9.49018H51.1037ZM58.0294 19.3759H60.0995C60.1795 18.9467 60.2174 18.5617 60.2174 18.2209C60.2174 17.8801 60.0028 17.6718 59.5736 17.5919H58.0294V19.3738V19.3759Z" fill="#192D79"/>
<path d="M66.8126 9.972H69.2572V8.76653C68.4199 8.78967 67.5363 8.8065 66.6085 8.81702V7.27284C67.4795 7.26232 68.3631 7.24549 69.2572 7.22235V6.05054H70.8708V7.16975C71.6955 7.14661 72.5286 7.11295 73.3659 7.06877V8.64661C72.6064 8.68027 71.7754 8.70972 70.8708 8.73076V9.96989H73.1113V11.5646H70.8708V12.7195H73.2123V14.3142H72.5328C72.6905 15.9089 72.9514 17.1207 73.3133 17.9475V20.6971C72.3729 19.7925 71.7123 17.6655 71.3273 14.3163H70.8687V21.2925H69.2551V14.3163H68.7796C68.6218 17.0996 67.875 19.1655 66.5391 20.512L66.5559 18.101C67.0755 17.1165 67.3764 15.8542 67.4563 14.3163H66.6758V12.7216H69.2551V11.5667H66.8105V9.972H66.8126ZM73.7193 11.5835H81.0005V13.195H77.4704L75.7726 19.1529C75.7726 19.3444 75.8736 19.4475 76.0776 19.458H78.4886C78.8063 19.4117 78.964 19.1866 78.964 18.7785V15.7911H80.5924V19.4916C80.5356 20.4089 79.9697 20.918 78.8946 21.019H74.8049C74.4093 20.9853 74.1316 20.6634 73.9739 20.0512C73.9739 19.8577 74.0138 19.6158 74.0917 19.3212L75.7389 13.195H73.7193V11.5835ZM74.0075 6.88153H80.7628V8.4762H74.0075V6.88153Z" fill="#192D79"/>
<path d="M49.8392 26.7455C49.0082 26.7455 48.741 26.5393 48.741 25.9019V23.6361H48.0215V25.9019C48.0215 26.9769 48.5832 27.4566 49.8392 27.4566H52.3385V26.7476H49.8392V26.7455Z" fill="#0C68AB"/>
<path d="M56.4782 24.3934C56.2342 23.9096 55.9418 23.5856 55.3212 23.5856C54.6585 23.5856 54.3745 23.9727 54.1683 24.3934L52.6367 27.4544H53.4151L53.9179 26.4509H56.7286L57.2314 27.4544H58.0098L56.4782 24.3913V24.3934ZM56.3899 25.7945H54.2503L54.8625 24.5744C54.9803 24.3387 55.1129 24.242 55.3191 24.242C55.5252 24.242 55.662 24.3345 55.7819 24.5744L56.3899 25.7945Z" fill="#0C68AB"/>
<path d="M62.9039 23.6361V26.7308C62.4789 26.7224 62.3632 26.5646 61.4565 25.3318C60.4466 23.9601 60.1731 23.6382 59.2138 23.6382H58.6963V27.4587H59.4221V24.3703C59.8155 24.3766 59.9102 24.5008 60.7896 25.6515L60.88 25.7693C61.9172 27.1347 62.197 27.4587 63.1121 27.4587H63.6297V23.6382H62.9039V23.6361Z" fill="#0C68AB"/>
<path d="M68.4366 23.6361L67.1911 25.0499L67.1448 25.1003C67.0354 25.2224 66.9134 25.3549 66.8208 25.5127C66.7325 25.3675 66.621 25.2413 66.52 25.1277C66.4969 25.1024 66.4758 25.0772 66.4527 25.052L65.2072 23.6361H64.168L66.0235 25.6179C66.1539 25.7525 66.459 26.0681 66.459 26.2974V27.4566H67.1785V26.2974C67.1785 26.0807 67.4415 25.803 67.5824 25.6515L69.4695 23.6361H68.4323H68.4366Z" fill="#0C68AB"/>
<path d="M73.8834 23.6361V25.6263C73.8834 26.5583 73.5552 26.8002 72.2824 26.8002C71.0096 26.8002 70.6814 26.5583 70.6814 25.6263V23.6361H69.9619V25.6263C69.9619 26.9811 70.612 27.5092 72.2824 27.5092C73.9528 27.5092 74.6092 26.9811 74.6092 25.6263V23.6361H73.8834Z" fill="#0C68AB"/>
<path d="M79.8454 23.6361V26.7308C79.4205 26.7224 79.3047 26.5646 78.398 25.3318C77.3882 23.9601 77.1147 23.6382 76.1533 23.6382H75.6357V27.4587H76.3616V24.3703C76.755 24.3766 76.8496 24.5008 77.729 25.6515L77.8195 25.7715C78.8566 27.1368 79.1364 27.4608 80.0516 27.4608H80.5691V23.6403H79.8433L79.8454 23.6361Z" fill="#0C68AB"/>
<path d="M36.0923 27.0757C33.5951 27.0757 29.1372 25.9755 25.2578 24.5596L27.2648 22.7125C32.9345 24.7826 37.2662 25.2728 39.0502 24.0274C39.7781 23.5182 40.1316 22.6725 40.1316 21.4397H42.492C42.492 23.4698 41.7894 24.993 40.403 25.9607C39.3406 26.7034 37.8995 27.0757 36.0923 27.0757Z" fill="#8BC333"/>
<path d="M40.1676 16.7608C34.8618 13.4831 22.1508 19.6662 20.7181 20.3836C20.6655 20.4088 17.3689 22.0477 13.5421 23.2973C8.7791 24.852 5.23632 25.1402 3.56592 24.1073C3.04839 23.7875 2.36045 23.1627 2.36045 21.4376C2.36045 20.2952 2.69285 18.7279 5.56241 18.2987C7.57363 17.9979 9.29663 16.8429 10.2854 15.1283C12.5407 11.2216 16.7398 8.7938 21.2461 8.7938C24.7321 8.7938 28.0477 10.2286 30.4334 12.7489C30.6564 12.9845 31.0224 13.014 31.2686 12.8015L32.1479 12.042C32.4025 11.8233 32.432 11.4319 32.2026 11.1858C29.3689 8.15846 25.4095 6.43335 21.2461 6.43335C15.9004 6.43335 10.9165 9.31343 8.24263 13.9481C7.6136 15.0357 6.51122 15.7721 5.21318 15.9656C1.89972 16.4621 0 18.4586 0 21.4397C0 24.1178 1.26438 25.4621 2.32468 26.1164C3.42286 26.7959 4.83871 27.0694 6.40603 27.0694C12.4102 27.0694 20.6381 23.0638 21.7742 22.4958C26.7286 20.0196 35.7665 16.8155 38.9263 18.77C39.4439 19.0897 40.1318 19.7146 40.1318 21.4397C40.1318 22.0918 40.6599 22.6199 41.312 22.6199C41.9642 22.6199 42.4923 22.0918 42.4923 21.4397C42.4923 18.7615 41.2279 17.4172 40.1676 16.7608Z" fill="url(#paint0_linear_10526_156789)"/>
<path d="M23.1122 10.5126H21.387C21.3092 10.5126 21.2461 10.5757 21.2461 10.6535V12.3786C21.2461 12.4565 21.3092 12.5196 21.387 12.5196H23.1122C23.19 12.5196 23.2531 12.4565 23.2531 12.3786V10.6535C23.2531 10.5757 23.19 10.5126 23.1122 10.5126Z" fill="#8BC333"/>
<path d="M27.1258 12.5197H25.4007C25.3229 12.5197 25.2598 12.5828 25.2598 12.6606V14.3857C25.2598 14.4636 25.3229 14.5267 25.4007 14.5267H27.1258C27.2037 14.5267 27.2668 14.4636 27.2668 14.3857V12.6606C27.2668 12.5828 27.2037 12.5197 27.1258 12.5197Z" fill="#8BC333"/>
<path d="M19.0985 14.5266H17.3734C17.2955 14.5266 17.2324 14.5897 17.2324 14.6676V16.3927C17.2324 16.4705 17.2955 16.5336 17.3734 16.5336H19.0985C19.1763 16.5336 19.2394 16.4705 19.2394 16.3927V14.6676C19.2394 14.5897 19.1763 14.5266 19.0985 14.5266Z" fill="#8BC333"/>
<path d="M27.2668 16.5336H25.2598V24.5595H27.2668V16.5336Z" fill="#8BC333"/>
<path d="M23.2531 14.5266H21.2461V24.5596H23.2531V14.5266Z" fill="#8BC333"/>
<path d="M19.2394 18.5386H17.2324V26.5645H19.2394V18.5386Z" fill="#8BC333"/>
</g>
</g>
<defs>
<linearGradient id="paint0_linear_10526_156789" x1="0" y1="16.7524" x2="42.4923" y2="16.7524" gradientUnits="userSpaceOnUse">
<stop stop-color="#007EBB"/>
<stop offset="0.16" stop-color="#0480B6"/>
<stop offset="0.33" stop-color="#1086AA"/>
<stop offset="0.51" stop-color="#269095"/>
<stop offset="0.68" stop-color="#439F78"/>
<stop offset="0.86" stop-color="#69B253"/>
<stop offset="1" stop-color="#8BC333"/>
</linearGradient>
<clipPath id="clip0_10526_156789">
<rect width="81" height="47" fill="white"/>
</clipPath>
<clipPath id="clip1_10526_156789">
<rect width="81" height="21.5091" fill="white" transform="translate(0 6)"/>
</clipPath>
</defs>
</svg>
